<mxfile host="app.diagrams.net" modified="2022-09-25T06:32:24.677Z" agent="5.0 (Windows NT 10.0; Win64; x64) AppleWebKit/537.36 (KHTML, like Gecko) Chrome/105.0.0.0 Safari/537.36" etag="I1uluXgKsnQG31nAp569" version="20.3.6" type="github">
  <diagram id="R2lEEEUBdFMjLlhIrx00" name="Page-1">
    <mxGraphModel dx="1673" dy="2025" grid="1" gridSize="10" guides="1" tooltips="1" connect="1" arrows="1" fold="1" page="1" pageScale="1" pageWidth="850" pageHeight="1100" background="#114B5F" math="0" shadow="0" extFonts="Permanent Marker^https://fonts.googleapis.com/css?family=Permanent+Marker">
      <root>
        <mxCell id="0" />
        <mxCell id="1" parent="0" />
        <mxCell id="C-vyLk0tnHw3VtMMgP7b-23" value="Customer" style="shape=table;startSize=30;container=1;collapsible=1;childLayout=tableLayout;fixedRows=1;rowLines=0;fontStyle=1;align=center;resizeLast=1;fillColor=#F45B69;strokeColor=#028090;fontColor=#E4FDE1;" parent="1" vertex="1" collapsed="1">
          <mxGeometry x="120" y="120" width="100" height="30" as="geometry">
            <mxRectangle x="120" y="120" width="250" height="100" as="alternateBounds" />
          </mxGeometry>
        </mxCell>
        <mxCell id="C-vyLk0tnHw3VtMMgP7b-24" value="" style="shape=partialRectangle;collapsible=0;dropTarget=0;pointerEvents=0;fillColor=none;points=[[0,0.5],[1,0.5]];portConstraint=eastwest;top=0;left=0;right=0;bottom=1;strokeColor=#028090;fontColor=#E4FDE1;" parent="C-vyLk0tnHw3VtMMgP7b-23" vertex="1">
          <mxGeometry y="30" width="250" height="30" as="geometry" />
        </mxCell>
        <mxCell id="C-vyLk0tnHw3VtMMgP7b-25" value="PK" style="shape=partialRectangle;overflow=hidden;connectable=0;fillColor=none;top=0;left=0;bottom=0;right=0;fontStyle=1;strokeColor=#028090;fontColor=#E4FDE1;" parent="C-vyLk0tnHw3VtMMgP7b-24" vertex="1">
          <mxGeometry width="30" height="30" as="geometry">
            <mxRectangle width="30" height="30" as="alternateBounds" />
          </mxGeometry>
        </mxCell>
        <mxCell id="C-vyLk0tnHw3VtMMgP7b-26" value="customer_id int NOT NULL " style="shape=partialRectangle;overflow=hidden;connectable=0;fillColor=none;top=0;left=0;bottom=0;right=0;align=left;spacingLeft=6;fontStyle=5;strokeColor=#028090;fontColor=#E4FDE1;" parent="C-vyLk0tnHw3VtMMgP7b-24" vertex="1">
          <mxGeometry x="30" width="220" height="30" as="geometry">
            <mxRectangle width="220" height="30" as="alternateBounds" />
          </mxGeometry>
        </mxCell>
        <mxCell id="C-vyLk0tnHw3VtMMgP7b-27" value="" style="shape=partialRectangle;collapsible=0;dropTarget=0;pointerEvents=0;fillColor=none;points=[[0,0.5],[1,0.5]];portConstraint=eastwest;top=0;left=0;right=0;bottom=0;strokeColor=#028090;fontColor=#E4FDE1;" parent="C-vyLk0tnHw3VtMMgP7b-23" vertex="1">
          <mxGeometry y="60" width="250" height="30" as="geometry" />
        </mxCell>
        <mxCell id="C-vyLk0tnHw3VtMMgP7b-28" value="" style="shape=partialRectangle;overflow=hidden;connectable=0;fillColor=none;top=0;left=0;bottom=0;right=0;strokeColor=#028090;fontColor=#E4FDE1;" parent="C-vyLk0tnHw3VtMMgP7b-27" vertex="1">
          <mxGeometry width="30" height="30" as="geometry">
            <mxRectangle width="30" height="30" as="alternateBounds" />
          </mxGeometry>
        </mxCell>
        <mxCell id="C-vyLk0tnHw3VtMMgP7b-29" value="customer_name char(50) NOT NULL" style="shape=partialRectangle;overflow=hidden;connectable=0;fillColor=none;top=0;left=0;bottom=0;right=0;align=left;spacingLeft=6;strokeColor=#028090;fontColor=#E4FDE1;" parent="C-vyLk0tnHw3VtMMgP7b-27" vertex="1">
          <mxGeometry x="30" width="220" height="30" as="geometry">
            <mxRectangle width="220" height="30" as="alternateBounds" />
          </mxGeometry>
        </mxCell>
        <mxCell id="hK2k2CaXk-kH8A74S1h3-1" value="Car" style="rounded=0;whiteSpace=wrap;html=1;fillColor=#F45B69;strokeColor=#028090;fontColor=#E4FDE1;" vertex="1" parent="1">
          <mxGeometry x="110" y="240" width="120" height="60" as="geometry" />
        </mxCell>
        <mxCell id="hK2k2CaXk-kH8A74S1h3-2" value="Employee" style="rounded=0;whiteSpace=wrap;html=1;fillColor=#F45B69;strokeColor=#028090;fontColor=#E4FDE1;" vertex="1" parent="1">
          <mxGeometry x="490" y="240" width="120" height="60" as="geometry" />
        </mxCell>
        <mxCell id="hK2k2CaXk-kH8A74S1h3-3" value="Store" style="rounded=0;whiteSpace=wrap;html=1;fillColor=#F45B69;strokeColor=#028090;fontColor=#E4FDE1;" vertex="1" parent="1">
          <mxGeometry x="490" y="50" width="120" height="60" as="geometry" />
        </mxCell>
        <mxCell id="hK2k2CaXk-kH8A74S1h3-4" value="Buys" style="rhombus;whiteSpace=wrap;html=1;fillColor=#F45B69;strokeColor=#028090;fontColor=#E4FDE1;" vertex="1" parent="1">
          <mxGeometry x="150" y="180" width="40" height="40" as="geometry" />
        </mxCell>
        <mxCell id="hK2k2CaXk-kH8A74S1h3-5" value="Service" style="rhombus;whiteSpace=wrap;html=1;fillColor=#F45B69;strokeColor=#028090;fontColor=#E4FDE1;" vertex="1" parent="1">
          <mxGeometry x="340" y="245" width="50" height="50" as="geometry" />
        </mxCell>
        <mxCell id="hK2k2CaXk-kH8A74S1h3-6" value="Sells" style="rhombus;whiteSpace=wrap;html=1;fillColor=#F45B69;strokeColor=#028090;fontColor=#E4FDE1;" vertex="1" parent="1">
          <mxGeometry x="340" y="180" width="50" height="50" as="geometry" />
        </mxCell>
        <mxCell id="hK2k2CaXk-kH8A74S1h3-7" value="Maintains" style="rhombus;whiteSpace=wrap;html=1;fillColor=#F45B69;strokeColor=#028090;fontColor=#E4FDE1;" vertex="1" parent="1">
          <mxGeometry x="515" y="150" width="70" height="60" as="geometry" />
        </mxCell>
        <mxCell id="hK2k2CaXk-kH8A74S1h3-8" value="Name" style="ellipse;whiteSpace=wrap;html=1;strokeColor=#028090;fontColor=#E4FDE1;fillColor=#F45B69;" vertex="1" parent="1">
          <mxGeometry x="10" y="80" width="80" height="30" as="geometry" />
        </mxCell>
        <mxCell id="hK2k2CaXk-kH8A74S1h3-10" value="Aadhaar No." style="ellipse;whiteSpace=wrap;html=1;strokeColor=#028090;fontColor=#E4FDE1;fillColor=#F45B69;fontStyle=4" vertex="1" parent="1">
          <mxGeometry x="30" y="40" width="80" height="30" as="geometry" />
        </mxCell>
        <mxCell id="hK2k2CaXk-kH8A74S1h3-11" value="Contact No." style="ellipse;whiteSpace=wrap;html=1;strokeColor=#028090;fontColor=#E4FDE1;fillColor=#F45B69;" vertex="1" parent="1">
          <mxGeometry x="100" y="10" width="80" height="30" as="geometry" />
        </mxCell>
        <mxCell id="hK2k2CaXk-kH8A74S1h3-12" value="Occupation" style="ellipse;whiteSpace=wrap;html=1;strokeColor=#028090;fontColor=#E4FDE1;fillColor=#F45B69;" vertex="1" parent="1">
          <mxGeometry x="190" y="10" width="80" height="30" as="geometry" />
        </mxCell>
        <mxCell id="hK2k2CaXk-kH8A74S1h3-13" value="Age" style="ellipse;whiteSpace=wrap;html=1;strokeColor=#028090;fontColor=#E4FDE1;fillColor=#F45B69;" vertex="1" parent="1">
          <mxGeometry x="230" y="50" width="80" height="30" as="geometry" />
        </mxCell>
        <mxCell id="hK2k2CaXk-kH8A74S1h3-14" value="&lt;u&gt;Model&lt;/u&gt;" style="ellipse;whiteSpace=wrap;html=1;strokeColor=#028090;fontColor=#E4FDE1;fillColor=#F45B69;" vertex="1" parent="1">
          <mxGeometry x="30" y="330" width="80" height="30" as="geometry" />
        </mxCell>
        <mxCell id="hK2k2CaXk-kH8A74S1h3-16" value="Colours" style="ellipse;shape=doubleEllipse;margin=3;whiteSpace=wrap;html=1;align=center;strokeColor=#028090;fontColor=#E4FDE1;fillColor=#F45B69;" vertex="1" parent="1">
          <mxGeometry x="110" y="350" width="100" height="40" as="geometry" />
        </mxCell>
        <mxCell id="hK2k2CaXk-kH8A74S1h3-17" value="Price" style="ellipse;whiteSpace=wrap;html=1;strokeColor=#028090;fontColor=#E4FDE1;fillColor=#F45B69;" vertex="1" parent="1">
          <mxGeometry x="210" y="330" width="80" height="30" as="geometry" />
        </mxCell>
        <mxCell id="hK2k2CaXk-kH8A74S1h3-18" value="Manager" style="ellipse;whiteSpace=wrap;html=1;align=center;strokeColor=#028090;fontColor=#E4FDE1;fillColor=#F45B69;" vertex="1" parent="1">
          <mxGeometry x="420" width="100" height="40" as="geometry" />
        </mxCell>
        <mxCell id="hK2k2CaXk-kH8A74S1h3-19" value="City" style="ellipse;whiteSpace=wrap;html=1;align=center;strokeColor=#028090;fontColor=#E4FDE1;fillColor=#F45B69;" vertex="1" parent="1">
          <mxGeometry x="530" y="-20" width="100" height="40" as="geometry" />
        </mxCell>
        <mxCell id="hK2k2CaXk-kH8A74S1h3-20" value="State" style="ellipse;whiteSpace=wrap;html=1;align=center;strokeColor=#028090;fontColor=#E4FDE1;fillColor=#F45B69;" vertex="1" parent="1">
          <mxGeometry x="640" y="20" width="100" height="40" as="geometry" />
        </mxCell>
        <mxCell id="hK2k2CaXk-kH8A74S1h3-21" value="Store_ID" style="ellipse;whiteSpace=wrap;html=1;align=center;strokeColor=#028090;fontColor=#E4FDE1;fillColor=#F45B69;" vertex="1" parent="1">
          <mxGeometry x="660" y="80" width="100" height="40" as="geometry" />
        </mxCell>
        <mxCell id="hK2k2CaXk-kH8A74S1h3-22" value="Emp_ID" style="ellipse;whiteSpace=wrap;html=1;align=center;fontStyle=4;strokeColor=#028090;fontColor=#E4FDE1;fillColor=#F45B69;" vertex="1" parent="1">
          <mxGeometry x="390" y="325" width="100" height="40" as="geometry" />
        </mxCell>
        <mxCell id="hK2k2CaXk-kH8A74S1h3-23" value="Name" style="ellipse;whiteSpace=wrap;html=1;align=center;strokeColor=#028090;fontColor=#E4FDE1;fillColor=#F45B69;" vertex="1" parent="1">
          <mxGeometry x="490" y="360" width="100" height="40" as="geometry" />
        </mxCell>
        <mxCell id="hK2k2CaXk-kH8A74S1h3-24" value="Age" style="ellipse;whiteSpace=wrap;html=1;align=center;strokeColor=#028090;fontColor=#E4FDE1;fillColor=#F45B69;" vertex="1" parent="1">
          <mxGeometry x="560" y="320" width="100" height="40" as="geometry" />
        </mxCell>
        <mxCell id="hK2k2CaXk-kH8A74S1h3-25" value="Salary" style="ellipse;whiteSpace=wrap;html=1;align=center;strokeColor=#028090;fontColor=#E4FDE1;fillColor=#F45B69;" vertex="1" parent="1">
          <mxGeometry x="670" y="270" width="100" height="40" as="geometry" />
        </mxCell>
        <mxCell id="hK2k2CaXk-kH8A74S1h3-26" value="Job_Type" style="ellipse;whiteSpace=wrap;html=1;align=center;strokeColor=#028090;fontColor=#E4FDE1;fillColor=#F45B69;" vertex="1" parent="1">
          <mxGeometry x="680" y="350" width="100" height="40" as="geometry" />
        </mxCell>
        <mxCell id="hK2k2CaXk-kH8A74S1h3-27" value="Salary" style="ellipse;whiteSpace=wrap;html=1;align=center;strokeColor=#028090;fontColor=#E4FDE1;fillColor=#F45B69;" vertex="1" parent="1">
          <mxGeometry x="580" y="410" width="100" height="40" as="geometry" />
        </mxCell>
        <mxCell id="hK2k2CaXk-kH8A74S1h3-28" value="Salary" style="ellipse;whiteSpace=wrap;html=1;align=center;strokeColor=#028090;fontColor=#E4FDE1;fillColor=#F45B69;" vertex="1" parent="1">
          <mxGeometry x="670" y="450" width="100" height="40" as="geometry" />
        </mxCell>
        <mxCell id="hK2k2CaXk-kH8A74S1h3-29" value="Salary" style="ellipse;whiteSpace=wrap;html=1;align=center;strokeColor=#028090;fontColor=#E4FDE1;fillColor=#F45B69;" vertex="1" parent="1">
          <mxGeometry x="780" y="430" width="100" height="40" as="geometry" />
        </mxCell>
        <mxCell id="hK2k2CaXk-kH8A74S1h3-30" value="Salary" style="ellipse;whiteSpace=wrap;html=1;align=center;strokeColor=#028090;fontColor=#E4FDE1;fillColor=#F45B69;" vertex="1" parent="1">
          <mxGeometry x="810" y="380" width="100" height="40" as="geometry" />
        </mxCell>
      </root>
    </mxGraphModel>
  </diagram>
</mxfile>
